<svg width="25" height="24" viewBox="0 0 25 24" fill="none" xmlns="http://www.w3.org/2000/svg">
<path d="M19.425 5.77772C20.0991 6.78661 20.0991 8.19108 20.0991 11C20.0991 13.8089 20.0991 15.2134 19.425 16.2223C19.1332 16.659 18.7582 17.034 18.3214 17.3259C17.4401 17.9148 16.2568 17.9892 14.0991 17.9986V18L12.9935 20.2111C12.625 20.9482 11.5732 20.9482 11.2047 20.2111L10.0991 18V17.9986C7.94142 17.9892 6.75819 17.9148 5.87684 17.3259C5.44008 17.034 5.06508 16.659 4.77324 16.2223C4.09912 15.2134 4.09912 13.8089 4.09912 11C4.09912 8.19108 4.09912 6.78661 4.77324 5.77772C5.06508 5.34096 5.44008 4.96596 5.87684 4.67412C6.88573 4 8.2902 4 11.0991 4H13.0991C15.908 4 17.3125 4 18.3214 4.67412C18.7582 4.96596 19.1332 5.34096 19.425 5.77772Z" stroke="#828282" stroke-width="2" stroke-linecap="round" stroke-linejoin="round"/>
<circle cx="19.5991" cy="4.5" r="3.5" fill="#9C0A35"/>
<path d="M9.09912 9L15.0991 9" stroke="#828282" stroke-width="2" stroke-linecap="round" stroke-linejoin="round"/>
<path d="M9.09912 13H12.0991" stroke="#828282" stroke-width="2" stroke-linecap="round" stroke-linejoin="round"/>
</svg>
