<svg width="24" height="24" viewBox="0 0 24 24" fill="none" xmlns="http://www.w3.org/2000/svg">
<path fill-rule="evenodd" clip-rule="evenodd" d="M8.65531 5.08916C8.71239 5.03207 8.78981 5 8.87055 5H15.3925C15.4733 5 15.5507 5.03207 15.6078 5.08916C15.6648 5.14624 15.6969 5.22367 15.6969 5.3044V5.60908H8.56615V5.3044C8.56615 5.22367 8.59822 5.14624 8.65531 5.08916ZM6.56615 5.60908V5.3044C6.56615 4.69323 6.80893 4.1071 7.24109 3.67494C7.67325 3.24278 8.25938 3 8.87055 3H15.3925C16.0037 3 16.5898 3.24278 17.022 3.67494C17.4541 4.1071 17.6969 4.69323 17.6969 5.3044V5.60908H19.3049C20.9378 5.60908 22.2615 6.93279 22.2615 8.56567V11.174V17.6964C22.2615 19.3293 20.9378 20.653 19.3049 20.653H4.95659C3.32371 20.653 2 19.3293 2 17.6964V11.174V8.56567C2 6.93279 3.32371 5.60908 4.95659 5.60908H6.56615ZM20.2615 8.56567V10.174H14.74H9.52171H4V8.56567C4 8.03736 4.42828 7.60908 4.95659 7.60908H19.3049C19.8333 7.60908 20.2615 8.03736 20.2615 8.56567ZM8.52188 12.174H4V17.6964C4 18.2248 4.42828 18.653 4.95659 18.653H19.3049C19.8333 18.653 20.2615 18.2248 20.2615 17.6964V12.174H15.7399C15.7343 12.5179 15.5952 12.8465 15.3516 13.0901C15.1029 13.3388 14.7656 13.4785 14.4139 13.4785H9.84785C9.49614 13.4785 9.15883 13.3388 8.91013 13.0901C8.66651 12.8465 8.52747 12.5179 8.52188 12.174Z" fill="#9C0A35"/>
</svg>
