<svg width="24" height="24" viewBox="0 0 24 24" fill="none" xmlns="http://www.w3.org/2000/svg">
<circle cx="9" cy="9" r="3" stroke="#9C0A35" stroke-width="2" stroke-linecap="round"/>
<path d="M12.2679 9C12.5332 8.54063 12.97 8.20543 13.4824 8.06815C13.9947 7.93086 14.5406 8.00273 15 8.26795C15.4594 8.53317 15.7946 8.97 15.9319 9.48236C16.0691 9.99472 15.9973 10.5406 15.7321 11C15.4668 11.4594 15.03 11.7946 14.5176 11.9319C14.0053 12.0691 13.4594 11.9973 13 11.7321C12.5406 11.4668 12.2054 11.03 12.0681 10.5176C11.9309 10.0053 12.0027 9.45937 12.2679 9L12.2679 9Z" stroke="#9C0A35" stroke-width="2"/>
<path d="M13.8816 19L12.9012 19.1974L13.0629 20H13.8816V19ZM17.7201 17.9042L18.6626 17.5699L17.7201 17.9042ZM11.7808 15.7105L11.1759 14.9142L10.0193 15.7927L11.2526 16.5597L11.7808 15.7105ZM16.8672 18H13.8816V20H16.8672V18ZM16.7777 18.2384C16.7706 18.2186 16.7641 18.181 16.7725 18.1354C16.7803 18.0921 16.7982 18.0593 16.8151 18.0383C16.8473 17.9982 16.8739 18 16.8672 18V20C18.0132 20 19.1413 18.9194 18.6626 17.5699L16.7777 18.2384ZM14 16C15.6415 16 16.4026 17.1811 16.7777 18.2384L18.6626 17.5699C18.1976 16.2588 16.9485 14 14 14V16ZM12.3856 16.5069C12.7701 16.2148 13.2819 16 14 16V14C12.8381 14 11.9027 14.3622 11.1759 14.9142L12.3856 16.5069ZM11.2526 16.5597C12.2918 17.206 12.727 18.3324 12.9012 19.1974L14.8619 18.8026C14.6439 17.7204 14.0374 15.9364 12.3089 14.8614L11.2526 16.5597Z" fill="#9C0A35"/>
<path d="M9 15C12.5715 15 13.5919 17.5512 13.8834 19.0089C13.9917 19.5504 13.5523 20 13 20H5C4.44772 20 4.00829 19.5504 4.11659 19.0089C4.4081 17.5512 5.42846 15 9 15Z" stroke="#9C0A35" stroke-width="2" stroke-linecap="round"/>
<path d="M19 3V7" stroke="#9C0A35" stroke-width="2" stroke-linecap="round"/>
<path d="M21 5L17 5" stroke="#9C0A35" stroke-width="2" stroke-linecap="round"/>
</svg>
